<svg width="35" height="35" viewBox="0 0 35 35" fill="none" xmlns="http://www.w3.org/2000/svg">
<g clip-path="url(#clip0_12_381)">
<path d="M24.792 8.74996H32.0837V11.6666H29.167V30.625C29.167 31.0117 29.0133 31.3827 28.7399 31.6562C28.4664 31.9296 28.0954 32.0833 27.7087 32.0833H7.29199C6.90522 32.0833 6.53429 31.9296 6.26079 31.6562C5.9873 31.3827 5.83366 31.0117 5.83366 30.625V11.6666H2.91699V8.74996H10.2087V4.37496C10.2087 3.98819 10.3623 3.61725 10.6358 3.34376C10.9093 3.07027 11.2802 2.91663 11.667 2.91663H23.3337C23.7204 2.91663 24.0914 3.07027 24.3649 3.34376C24.6383 3.61725 24.792 3.98819 24.792 4.37496V8.74996ZM26.2503 11.6666H8.75033V29.1666H26.2503V11.6666ZM13.1253 16.0416H16.042V24.7916H13.1253V16.0416ZM18.9587 16.0416H21.8753V24.7916H18.9587V16.0416ZM13.1253 5.83329V8.74996H21.8753V5.83329H13.1253Z" fill="#232222"/>
</g>
<defs>
<clipPath id="clip0_12_381">
<rect width="35" height="35" fill="white"/>
</clipPath>
</defs>
</svg>
