<svg width="45" height="49" viewBox="0 0 45 49" fill="none" xmlns="http://www.w3.org/2000/svg">
<path d="M4 1.5H41C42.3807 1.5 43.5 2.61929 43.5 4V45C43.5 46.3807 42.3807 47.5 41 47.5H4C2.61929 47.5 1.5 46.3807 1.5 45V4C1.5 2.70566 2.48361 1.64082 3.74414 1.5127L4 1.5Z" stroke="#F9F7F5" stroke-width="3"/>
<path d="M24.0607 6.54405C23.336 5.81865 22.161 5.81865 21.4363 6.54405L9.6263 18.368C8.90175 19.0936 8.90175 20.2699 9.6263 20.9954C10.351 21.721 11.5261 21.721 12.2508 20.9954L22.7484 10.4855L33.2462 20.9954C33.9709 21.721 35.1458 21.721 35.8705 20.9954C36.5952 20.2699 36.5952 19.0936 35.8705 18.368L24.0607 6.54405ZM24.6043 42.5393V7.85786H20.8927V42.5393H24.6043Z" fill="#F9F7F5"/>
</svg>
